<svg version="1.1" xmlns="http://www.w3.org/2000/svg" xmlns:xlink="http://www.w3.org/1999/xlink" width="59.91743" height="117.71838" viewBox="0,0,59.91743,117.71838"><g transform="translate(-209.25062,-121.13524)"><g stroke="#000000" stroke-miterlimit="10"><path d="M212.45298,121.45117c4.27378,-1.68745 3.99111,1.73524 23.39137,52.09733c11.02954,29.4711 19.76067,53.61865 16.55011,54.62697c-4.68511,1.80854 -12.36182,-22.62622 -23.39136,-52.09733c-16.89172,-48.16374 -21.64214,-52.78237 -16.55012,-54.62697z" fill="#d99e82" stroke-width="0"/><path d="M231.66366,188.60508c-9.14277,0 -16.55443,-7.24756 -16.55443,-16.18792c0,-0.78587 -6.31352,-9.26285 -5.83245,-12.90786c0.40452,-2.76293 9.55433,-0.3003 11.53093,-0.54877c4.86102,-1.00187 5.4542,-2.73129 10.85596,-2.73129c1.57876,0 3.53694,-7.03389 6.07355,-5.48884c4.69159,2.85764 10.48089,15.87384 10.48089,21.67674c0,8.94036 -7.41168,16.18792 -16.55443,16.18792z" fill="#fcb1e3" stroke-width="0"/><path d="M254.49773,207.54343c-3.95019,2.74614 -8.14073,4.33933 -12.55592,4.76162c-4.55084,0.43525 -8.46053,0.76116 -12.24363,-2.3874c-7.45344,-6.20327 -8.34307,-19.21037 -2.19171,-24.55014c1.44594,-1.25547 3.26814,-2.45373 4.53075,-3.07615c1.76698,-0.87105 1.91986,-1.00055 5.71606,-1.94996c6.04389,-0.9383 9.92917,-0.90806 14.55274,2.94c7.45344,6.20327 8.43469,16.90662 2.19171,24.26203z" fill="#ffd983" stroke-width="0"/><path d="M232.32721,232.90573c-2.56114,-5.68425 -1.68892,-8.14742 -0.86406,-12.66379c1.34684,-6.26958 3.91259,-8.71043 9.84623,-10.86565c2.22542,-0.80831 7.74255,-2.38249 10.8511,-2.73285c3.62404,-0.35301 6.7831,0.58103 9.40006,2.45432c2.34915,1.68157 3.03827,2.18205 6.332,6.90816c0.45659,0.77986 0.8903,1.63485 1.27551,2.54404c-2.66317,0.99029 -4.56047,3.55517 -4.56047,6.56318c0,0.37994 0.03027,0.75281 0.08853,1.11633c-0.25361,-0.02784 -0.51131,-0.04212 -0.77233,-0.04212c-3.32613,0 -6.11043,2.31983 -6.8232,5.42977c-0.58068,-0.15603 -1.19119,-0.23924 -1.82113,-0.23924c-3.86599,0 -7,3.13401 -7,7c0,0.15989 0.00536,0.31852 0.01591,0.47574c-7.50797,-0.10296 -13.47328,-0.99934 -15.96815,-5.94789z" fill="#a6d388" stroke-width="0"/><path d="M231.87007,170.77208c-1.41148,0 -2.55572,-1.14423 -2.55572,-2.55573c0,-1.41149 1.14423,-2.55572 2.55572,-2.55572c1.4115,0 2.55572,1.14422 2.55572,2.55572c0,1.4115 -1.14422,2.55573 -2.55572,2.55573z" fill="#000000" stroke-width="1.5"/><path d="M243.83381,164.03088z" fill="#000000" stroke-width="0"/><path d="M245.61169,164.9569c0,1.37058 -0.22211,1.74084 -1.59269,1.74084c-0.68528,0 -0.93531,-0.35186 -1.3844,-0.80094c-0.44908,-0.44908 -0.80093,-0.99542 -0.80093,-1.68071c0,-1.37058 -0.07421,-1.74085 1.29638,-1.74085c1.37058,0 2.48163,1.11107 2.48163,2.48165z" fill="#000000" stroke-width="1.5"/></g></g></svg>